<svg xmlns="http://www.w3.org/2000/svg" viewBox="0 0 128 128" role="img" aria-label="Atlas server favicon">
  <defs>
    <linearGradient id="page" x1="0" y1="0" x2="1" y2="1">
      <stop offset="0" stop-color="#f7f3ec"/>
      <stop offset="1" stop-color="#ece5db"/>
    </linearGradient>
    <linearGradient id="bg" x1="0" y1="0" x2="1" y2="1">
      <stop offset="0" stop-color="#5f5a57"/>
      <stop offset="0.5" stop-color="#2c2827"/>
      <stop offset="1" stop-color="#121111"/>
    </linearGradient>
    <linearGradient id="panel" x1="0" y1="0" x2="1" y2="1">
      <stop offset="0" stop-color="#8b847f"/>
      <stop offset="0.45" stop-color="#57504c"/>
      <stop offset="1" stop-color="#1f1c1b"/>
    </linearGradient>
    <linearGradient id="drawer" x1="0" y1="0" x2="1" y2="0">
      <stop offset="0" stop-color="#6d6661"/>
      <stop offset="1" stop-color="#2b2726"/>
    </linearGradient>
    <radialGradient id="ball" cx="35%" cy="30%" r="70%">
      <stop offset="0" stop-color="#fbf9f5"/>
      <stop offset="0.16" stop-color="#d8d3cf"/>
      <stop offset="0.42" stop-color="#7b7672"/>
      <stop offset="0.78" stop-color="#272628"/>
      <stop offset="1" stop-color="#0d0d0e"/>
    </radialGradient>
    <radialGradient id="ballHighlight" cx="28%" cy="24%" r="34%">
      <stop offset="0" stop-color="#ffffff" stop-opacity="0.96"/>
      <stop offset="0.45" stop-color="#f7f4ef" stop-opacity="0.58"/>
      <stop offset="1" stop-color="#ffffff" stop-opacity="0"/>
    </radialGradient>
    <linearGradient id="drawerFace" x1="0" y1="0" x2="1" y2="0">
      <stop offset="0" stop-color="#756d67"/>
      <stop offset="0.48" stop-color="#564f4a"/>
      <stop offset="1" stop-color="#2a2625"/>
    </linearGradient>
    <linearGradient id="drawerLip" x1="0" y1="0" x2="1" y2="0">
      <stop offset="0" stop-color="#8d857f"/>
      <stop offset="1" stop-color="#49433f"/>
    </linearGradient>
  </defs>
  <rect width="128" height="128" rx="28" fill="url(#page)"/>
  <g transform="translate(16 12)">
    <ellipse cx="49" cy="86" rx="33" ry="8" fill="#201c1a" opacity="0.18"/>
    <polygon points="20,34 52,25 79,39 45,49" fill="#817a75"/>
    <polygon points="20,34 45,49 45,86 20,70" fill="#2b2522"/>
    <polygon points="45,49 79,39 79,75 45,86" fill="url(#bg)"/>
    <polygon points="20,34 45,49 79,39 52,25" fill="url(#panel)"/>
    <path d="M24 35l27-8 23 12" fill="none" stroke="#c4bdb6" stroke-opacity="0.34" stroke-width="1.3"/>
    <rect x="38" y="34" width="12" height="11" rx="4" fill="#6a625d"/>
    <ellipse cx="44" cy="29" rx="18" ry="7.5" fill="url(#panel)"/>
    <circle cx="44" cy="16" r="18.5" fill="url(#ball)"/>
    <ellipse cx="37" cy="10.5" rx="7.8" ry="6.6" fill="url(#ballHighlight)"/>
    <rect x="24" y="45" width="24" height="10" rx="3" fill="url(#drawerFace)" stroke="#8a837d" stroke-opacity="0.3"/>
    <rect x="24" y="46" width="24" height="1.7" rx="0.85" fill="url(#drawerLip)" opacity="0.8"/>
    <rect x="24" y="58" width="24" height="10" rx="3" fill="url(#drawerFace)" stroke="#8a837d" stroke-opacity="0.3"/>
    <rect x="24" y="59" width="24" height="1.7" rx="0.85" fill="url(#drawerLip)" opacity="0.8"/>
    <rect x="24" y="71" width="24" height="10" rx="3" fill="url(#drawerFace)" stroke="#8a837d" stroke-opacity="0.3"/>
    <rect x="24" y="72" width="24" height="1.7" rx="0.85" fill="url(#drawerLip)" opacity="0.8"/>
    <circle cx="44" cy="50" r="1.7" fill="#e1dbd4"/>
    <circle cx="44" cy="63" r="1.7" fill="#d7d0c9"/>
    <circle cx="44" cy="76" r="1.7" fill="#8a847e"/>
  </g>
</svg>
